# xmcd CD database file
#
# Track frame offsets:
#	150
#	16995
#	29890
#	54937
#	68285
#	84092
#	101422
#	117317
#	147872
#	163162
#
# Disc length: 2464 seconds
#
# Revision: 0
# Processed by: cddbd v1.5.1PL0 Copyright (c) Steve Scherf et al.
# Submitted via: CDex 1.51
#
DISCID=77099e0a
DTITLE=Williams, Robert Pete - Louisiana Blues
DYEAR=1966
DGENRE=Blues
TTITLE0=Somebody Help Poor Me
TTITLE1=Freight-train Blues
TTITLE2=It's Hard To Tell
TTITLE3=I'm Going Down Slow
TTITLE4=Motherless Children Have A Hard Time
TTITLE5=Ugly
TTITLE6=So Long Boogie
TTITLE7=This Is A Mean Old World To Me
TTITLE8=High As I Want To Be
TTITLE9=It's A Long Old Road
EXTD=YEAR: 1966
EXTT0=
EXTT1=
EXTT2=
EXTT3=
EXTT4=
EXTT5=
EXTT6=
EXTT7=
EXTT8=
EXTT9=
PLAYORDER=
